<svg width="138" height="37" viewBox="0 0 138 37" fill="none" xmlns="http://www.w3.org/2000/svg">
    <path d="M37.6914 26H35.1689V13.3965H37.6914V19.6982L42.3848 13.3965H45.25L41.2686 18.7139L45.25 26H42.3848L39.6162 20.9023L37.6914 23.4775V26ZM54.6807 26H54.1006L53.1689 24.708C52.9404 24.9131 52.6973 25.1064 52.4395 25.2881C52.1875 25.4639 51.9209 25.6191 51.6396 25.7539C51.3584 25.8828 51.0684 25.9854 50.7695 26.0615C50.4766 26.1377 50.1777 26.1758 49.873 26.1758C49.2109 26.1758 48.5869 26.0645 48.001 25.8418C47.4209 25.6191 46.9111 25.2969 46.4717 24.875C46.0381 24.4473 45.6953 23.9258 45.4434 23.3105C45.1914 22.6953 45.0654 21.9951 45.0654 21.21C45.0654 20.4775 45.1914 19.8066 45.4434 19.1973C45.6953 18.582 46.0381 18.0547 46.4717 17.6152C46.9111 17.1758 47.4209 16.8359 48.001 16.5957C48.5869 16.3496 49.2109 16.2266 49.873 16.2266C50.1777 16.2266 50.4795 16.2646 50.7783 16.3408C51.0771 16.417 51.3672 16.5225 51.6484 16.6572C51.9297 16.792 52.1963 16.9502 52.4482 17.1318C52.7061 17.3135 52.9463 17.5098 53.1689 17.7207L54.1006 16.6045H54.6807V26ZM52.2637 21.21C52.2637 20.8818 52.1992 20.5654 52.0703 20.2607C51.9473 19.9502 51.7773 19.6777 51.5605 19.4434C51.3438 19.2031 51.0889 19.0127 50.7959 18.8721C50.5088 18.7256 50.2012 18.6523 49.873 18.6523C49.5449 18.6523 49.2344 18.708 48.9414 18.8193C48.6543 18.9307 48.4023 19.0947 48.1855 19.3115C47.9746 19.5283 47.8076 19.7979 47.6846 20.1201C47.5615 20.4365 47.5 20.7998 47.5 21.21C47.5 21.6201 47.5615 21.9863 47.6846 22.3086C47.8076 22.625 47.9746 22.8916 48.1855 23.1084C48.4023 23.3252 48.6543 23.4893 48.9414 23.6006C49.2344 23.7119 49.5449 23.7676 49.873 23.7676C50.2012 23.7676 50.5088 23.6973 50.7959 23.5566C51.0889 23.4102 51.3438 23.2197 51.5605 22.9854C51.7773 22.7451 51.9473 22.4727 52.0703 22.168C52.1992 21.8574 52.2637 21.5381 52.2637 21.21ZM58.917 26H56.5176V16.5869H57.0977L57.8887 17.501C58.2754 17.1494 58.7119 16.8799 59.1982 16.6924C59.6904 16.499 60.2031 16.4023 60.7363 16.4023C61.3105 16.4023 61.8525 16.5137 62.3623 16.7363C62.8721 16.9531 63.3174 17.2549 63.6982 17.6416C64.0791 18.0225 64.3779 18.4707 64.5947 18.9863C64.8174 19.4961 64.9287 20.041 64.9287 20.6211V26H62.5293V20.6211C62.5293 20.375 62.4824 20.1436 62.3887 19.9268C62.2949 19.7041 62.166 19.5107 62.002 19.3467C61.8379 19.1826 61.6475 19.0537 61.4307 18.96C61.2139 18.8662 60.9824 18.8193 60.7363 18.8193C60.4844 18.8193 60.2471 18.8662 60.0244 18.96C59.8018 19.0537 59.6084 19.1826 59.4443 19.3467C59.2803 19.5107 59.1514 19.7041 59.0576 19.9268C58.9639 20.1436 58.917 20.375 58.917 20.6211V26ZM75.9941 21.21C75.9941 21.9482 75.8682 22.6221 75.6162 23.2314C75.3643 23.8408 75.0215 24.3652 74.5879 24.8047C74.1543 25.2383 73.6445 25.5752 73.0586 25.8154C72.4785 26.0557 71.8545 26.1758 71.1865 26.1758C70.5244 26.1758 69.9004 26.0527 69.3145 25.8066C68.7344 25.5605 68.2246 25.2178 67.7852 24.7783C67.3516 24.3389 67.0088 23.8174 66.7568 23.2139C66.5049 22.6045 66.3789 21.9365 66.3789 21.21V12.8428H68.7871V17.2373C68.916 17.0732 69.0713 16.9268 69.2529 16.7979C69.4404 16.6689 69.6396 16.5635 69.8506 16.4814C70.0674 16.3994 70.29 16.3379 70.5186 16.2969C70.7471 16.25 70.9697 16.2266 71.1865 16.2266C71.8545 16.2266 72.4785 16.3525 73.0586 16.6045C73.6445 16.8506 74.1543 17.1963 74.5879 17.6416C75.0215 18.0869 75.3643 18.6143 75.6162 19.2236C75.8682 19.8271 75.9941 20.4893 75.9941 21.21ZM73.5771 21.21C73.5771 20.8467 73.5127 20.5098 73.3838 20.1992C73.2607 19.8828 73.0908 19.6104 72.874 19.3818C72.6572 19.1533 72.4023 18.9746 72.1094 18.8457C71.8223 18.7168 71.5146 18.6523 71.1865 18.6523C70.8584 18.6523 70.5479 18.7256 70.2549 18.8721C69.9678 19.0127 69.7158 19.2031 69.499 19.4434C69.2822 19.6777 69.1123 19.9502 68.9893 20.2607C68.8662 20.5654 68.8047 20.8818 68.8047 21.21C68.8047 21.5732 68.8662 21.9102 68.9893 22.2207C69.1123 22.5312 69.2822 22.8008 69.499 23.0293C69.7158 23.2578 69.9678 23.4395 70.2549 23.5742C70.5479 23.7031 70.8584 23.7676 71.1865 23.7676C71.5146 23.7676 71.8223 23.7031 72.1094 23.5742C72.4023 23.4395 72.6572 23.2578 72.874 23.0293C73.0908 22.8008 73.2607 22.5312 73.3838 22.2207C73.5127 21.9102 73.5771 21.5732 73.5771 21.21ZM86.4443 26H85.8643L84.9326 24.708C84.7041 24.9131 84.4609 25.1064 84.2031 25.2881C83.9512 25.4639 83.6846 25.6191 83.4033 25.7539C83.1221 25.8828 82.832 25.9854 82.5332 26.0615C82.2402 26.1377 81.9414 26.1758 81.6367 26.1758C80.9746 26.1758 80.3506 26.0645 79.7646 25.8418C79.1846 25.6191 78.6748 25.2969 78.2354 24.875C77.8018 24.4473 77.459 23.9258 77.207 23.3105C76.9551 22.6953 76.8291 21.9951 76.8291 21.21C76.8291 20.4775 76.9551 19.8066 77.207 19.1973C77.459 18.582 77.8018 18.0547 78.2354 17.6152C78.6748 17.1758 79.1846 16.8359 79.7646 16.5957C80.3506 16.3496 80.9746 16.2266 81.6367 16.2266C81.9414 16.2266 82.2432 16.2646 82.542 16.3408C82.8408 16.417 83.1309 16.5225 83.4121 16.6572C83.6934 16.792 83.96 16.9502 84.2119 17.1318C84.4697 17.3135 84.71 17.5098 84.9326 17.7207L85.8643 16.6045H86.4443V26ZM84.0273 21.21C84.0273 20.8818 83.9629 20.5654 83.834 20.2607C83.7109 19.9502 83.541 19.6777 83.3242 19.4434C83.1074 19.2031 82.8525 19.0127 82.5596 18.8721C82.2725 18.7256 81.9648 18.6523 81.6367 18.6523C81.3086 18.6523 80.998 18.708 80.7051 18.8193C80.418 18.9307 80.166 19.0947 79.9492 19.3115C79.7383 19.5283 79.5713 19.7979 79.4482 20.1201C79.3252 20.4365 79.2637 20.7998 79.2637 21.21C79.2637 21.6201 79.3252 21.9863 79.4482 22.3086C79.5713 22.625 79.7383 22.8916 79.9492 23.1084C80.166 23.3252 80.418 23.4893 80.7051 23.6006C80.998 23.7119 81.3086 23.7676 81.6367 23.7676C81.9648 23.7676 82.2725 23.6973 82.5596 23.5566C82.8525 23.4102 83.1074 23.2197 83.3242 22.9854C83.541 22.7451 83.7109 22.4727 83.834 22.168C83.9629 21.8574 84.0273 21.5381 84.0273 21.21Z" fill="#272727"/>
    <path d="M101.043 26H98.5293V17C98.5293 16.8242 98.4941 16.6602 98.4238 16.5078C98.3594 16.3555 98.2686 16.2236 98.1514 16.1123C98.04 15.9951 97.9082 15.9043 97.7559 15.8398C97.6035 15.7754 97.4395 15.7432 97.2637 15.7432C97.0879 15.7432 96.9238 15.7754 96.7715 15.8398C96.6191 15.9043 96.4844 15.9951 96.3672 16.1123C96.2559 16.2236 96.168 16.3555 96.1035 16.5078C96.0391 16.6602 96.0068 16.8242 96.0068 17V26H93.4844V17C93.4844 16.8242 93.4521 16.6602 93.3877 16.5078C93.3232 16.3555 93.2324 16.2236 93.1152 16.1123C93.0039 15.9951 92.8721 15.9043 92.7197 15.8398C92.5674 15.7754 92.4033 15.7432 92.2275 15.7432C92.0518 15.7432 91.8877 15.7754 91.7354 15.8398C91.583 15.9043 91.4482 15.9951 91.3311 16.1123C91.2197 16.2236 91.1318 16.3555 91.0674 16.5078C91.0029 16.6602 90.9707 16.8242 90.9707 17V26H88.4482V17C88.4482 16.4785 88.5449 15.9893 88.7383 15.5322C88.9375 15.0693 89.207 14.668 89.5469 14.3281C89.8926 13.9824 90.2939 13.7129 90.751 13.5195C91.2139 13.3203 91.7061 13.2207 92.2275 13.2207C92.6963 13.2207 93.1475 13.3057 93.5811 13.4756C94.0146 13.6396 94.4043 13.8799 94.75 14.1963C95.0957 13.8799 95.4824 13.6396 95.9102 13.4756C96.3438 13.3057 96.7949 13.2207 97.2637 13.2207C97.7852 13.2207 98.2744 13.3203 98.7314 13.5195C99.1943 13.7129 99.5957 13.9824 99.9355 14.3281C100.281 14.668 100.551 15.0693 100.744 15.5322C100.943 15.9893 101.043 16.4785 101.043 17V26ZM105.877 14.0293C105.877 14.252 105.833 14.46 105.745 14.6533C105.663 14.8467 105.549 15.0166 105.402 15.1631C105.256 15.3037 105.083 15.418 104.884 15.5059C104.69 15.5879 104.482 15.6289 104.26 15.6289C104.037 15.6289 103.826 15.5879 103.627 15.5059C103.434 15.418 103.264 15.3037 103.117 15.1631C102.977 15.0166 102.862 14.8467 102.774 14.6533C102.692 14.46 102.651 14.252 102.651 14.0293C102.651 13.8125 102.692 13.6074 102.774 13.4141C102.862 13.2148 102.977 13.0449 103.117 12.9043C103.264 12.7578 103.434 12.6436 103.627 12.5615C103.826 12.4736 104.037 12.4297 104.26 12.4297C104.482 12.4297 104.69 12.4736 104.884 12.5615C105.083 12.6436 105.256 12.7578 105.402 12.9043C105.549 13.0449 105.663 13.2148 105.745 13.4141C105.833 13.6074 105.877 13.8125 105.877 14.0293ZM105.464 26H103.047V16.5869H105.464V26ZM109.7 26H107.301V16.5869H107.881L108.672 17.501C109.059 17.1494 109.495 16.8799 109.981 16.6924C110.474 16.499 110.986 16.4023 111.52 16.4023C112.094 16.4023 112.636 16.5137 113.146 16.7363C113.655 16.9531 114.101 17.2549 114.481 17.6416C114.862 18.0225 115.161 18.4707 115.378 18.9863C115.601 19.4961 115.712 20.041 115.712 20.6211V26H113.312V20.6211C113.312 20.375 113.266 20.1436 113.172 19.9268C113.078 19.7041 112.949 19.5107 112.785 19.3467C112.621 19.1826 112.431 19.0537 112.214 18.96C111.997 18.8662 111.766 18.8193 111.52 18.8193C111.268 18.8193 111.03 18.8662 110.808 18.96C110.585 19.0537 110.392 19.1826 110.228 19.3467C110.063 19.5107 109.935 19.7041 109.841 19.9268C109.747 20.1436 109.7 20.375 109.7 20.6211V26ZM121.17 23.6973C121.264 23.7266 121.357 23.7471 121.451 23.7588C121.545 23.7646 121.639 23.7676 121.732 23.7676C121.967 23.7676 122.192 23.7354 122.409 23.6709C122.626 23.6064 122.828 23.5156 123.016 23.3984C123.209 23.2754 123.379 23.1289 123.525 22.959C123.678 22.7832 123.801 22.5898 123.895 22.3789L125.652 24.1455C125.43 24.4619 125.172 24.7461 124.879 24.998C124.592 25.25 124.278 25.4639 123.938 25.6396C123.604 25.8154 123.25 25.9473 122.875 26.0352C122.506 26.1289 122.125 26.1758 121.732 26.1758C121.07 26.1758 120.446 26.0527 119.86 25.8066C119.28 25.5605 118.771 25.2178 118.331 24.7783C117.897 24.3389 117.555 23.8174 117.303 23.2139C117.051 22.6045 116.925 21.9365 116.925 21.21C116.925 20.4658 117.051 19.7861 117.303 19.1709C117.555 18.5557 117.897 18.0312 118.331 17.5977C118.771 17.1641 119.28 16.8271 119.86 16.5869C120.446 16.3467 121.07 16.2266 121.732 16.2266C122.125 16.2266 122.509 16.2734 122.884 16.3672C123.259 16.4609 123.613 16.5957 123.947 16.7715C124.287 16.9473 124.604 17.1641 124.896 17.4219C125.189 17.6738 125.447 17.958 125.67 18.2744L121.17 23.6973ZM122.4 18.749C122.289 18.708 122.178 18.6816 122.066 18.6699C121.961 18.6582 121.85 18.6523 121.732 18.6523C121.404 18.6523 121.094 18.7139 120.801 18.8369C120.514 18.9541 120.262 19.124 120.045 19.3467C119.834 19.5693 119.667 19.8389 119.544 20.1553C119.421 20.4658 119.359 20.8174 119.359 21.21C119.359 21.2979 119.362 21.3975 119.368 21.5088C119.38 21.6201 119.395 21.7344 119.412 21.8516C119.436 21.9629 119.462 22.0713 119.491 22.1768C119.521 22.2822 119.559 22.376 119.605 22.458L122.4 18.749Z" fill="#25B2EF"/>
    <g filter="url(#filter0_d_2_420)">
    <path d="M19.7623 29.5007L5.51753 29.3511L4.45567 19.3981L18.7097 26.1111L19.7623 29.5007Z" fill="#25B2EF"/>
    <path d="M19.7623 29.5007L5.51753 29.3511L4.45567 19.3981L18.7097 26.1111L19.7623 29.5007Z" stroke="#25B2EF"/>
    </g>
    <g filter="url(#filter1_d_2_420)">
    <path d="M18.9578 26.703L6.77258 15.7637L14.5992 7.14428L21.0257 23.2426L18.9578 26.703Z" fill="#25B2EF"/>
    <path d="M18.9578 26.703L6.77258 15.7637L14.5992 7.14428L21.0257 23.2426L18.9578 26.703Z" stroke="#25B2EF"/>
    </g>
    <g filter="url(#filter2_d_2_420)">
    <path d="M20.9027 22.7361L18.7072 6.68965L29.9252 4.44397L24.6083 21.1937L20.9027 22.7361Z" fill="#25B2EF"/>
    <path d="M20.9027 22.7361L18.7072 6.68965L29.9252 4.44397L24.6083 21.1937L20.9027 22.7361Z" stroke="#25B2EF"/>
    </g>
    <defs>
    <filter id="filter0_d_2_420" x="1.86414" y="18.5668" width="20.5792" height="17.441" filterUnits="userSpaceOnUse" color-interpolation-filters="sRGB">
    <feFlood flood-opacity="0" result="BackgroundImageFix"/>
    <feColorMatrix in="SourceAlpha" type="matrix" values="0 0 0 0 0 0 0 0 0 0 0 0 0 0 0 0 0 0 127 0" result="hardAlpha"/>
    <feOffset dy="4"/>
    <feGaussianBlur stdDeviation="1"/>
    <feComposite in2="hardAlpha" operator="out"/>
    <feColorMatrix type="matrix" values="0 0 0 0 0 0 0 0 0 0 0 0 0 0 0 0 0 0 0.25 0"/>
    <feBlend mode="normal" in2="BackgroundImageFix" result="effect1_dropShadow_2_420"/>
    <feBlend mode="normal" in="SourceGraphic" in2="effect1_dropShadow_2_420" result="shape"/>
    </filter>
    <filter id="filter1_d_2_420" x="4.06433" y="6.21582" width="19.5175" height="27.2648" filterUnits="userSpaceOnUse" color-interpolation-filters="sRGB">
    <feFlood flood-opacity="0" result="BackgroundImageFix"/>
    <feColorMatrix in="SourceAlpha" type="matrix" values="0 0 0 0 0 0 0 0 0 0 0 0 0 0 0 0 0 0 127 0" result="hardAlpha"/>
    <feOffset dy="4"/>
    <feGaussianBlur stdDeviation="1"/>
    <feComposite in2="hardAlpha" operator="out"/>
    <feColorMatrix type="matrix" values="0 0 0 0 0 0 0 0 0 0 0 0 0 0 0 0 0 0 0.25 0"/>
    <feBlend mode="normal" in2="BackgroundImageFix" result="effect1_dropShadow_2_420"/>
    <feBlend mode="normal" in="SourceGraphic" in2="effect1_dropShadow_2_420" result="shape"/>
    </filter>
    <filter id="filter2_d_2_420" x="16.1481" y="3.78735" width="16.5101" height="25.6599" filterUnits="userSpaceOnUse" color-interpolation-filters="sRGB">
    <feFlood flood-opacity="0" result="BackgroundImageFix"/>
    <feColorMatrix in="SourceAlpha" type="matrix" values="0 0 0 0 0 0 0 0 0 0 0 0 0 0 0 0 0 0 127 0" result="hardAlpha"/>
    <feOffset dy="4"/>
    <feGaussianBlur stdDeviation="1"/>
    <feComposite in2="hardAlpha" operator="out"/>
    <feColorMatrix type="matrix" values="0 0 0 0 0 0 0 0 0 0 0 0 0 0 0 0 0 0 0.25 0"/>
    <feBlend mode="normal" in2="BackgroundImageFix" result="effect1_dropShadow_2_420"/>
    <feBlend mode="normal" in="SourceGraphic" in2="effect1_dropShadow_2_420" result="shape"/>
    </filter>
    </defs>
    </svg>
    