<svg width="137" height="21" viewBox="0 0 137 21" fill="none" xmlns="http://www.w3.org/2000/svg">
<path d="M46.6758 18H44.1621V9C44.1621 8.82422 44.127 8.66016 44.0566 8.50781C43.9922 8.35547 43.9014 8.22363 43.7842 8.1123C43.6729 7.99512 43.541 7.9043 43.3887 7.83984C43.2363 7.77539 43.0723 7.74316 42.8965 7.74316C42.7207 7.74316 42.5566 7.77539 42.4043 7.83984C42.252 7.9043 42.1172 7.99512 42 8.1123C41.8887 8.22363 41.8008 8.35547 41.7363 8.50781C41.6719 8.66016 41.6396 8.82422 41.6396 9V18H39.1172V9C39.1172 8.82422 39.085 8.66016 39.0205 8.50781C38.9561 8.35547 38.8652 8.22363 38.748 8.1123C38.6367 7.99512 38.5049 7.9043 38.3525 7.83984C38.2002 7.77539 38.0361 7.74316 37.8604 7.74316C37.6846 7.74316 37.5205 7.77539 37.3682 7.83984C37.2158 7.9043 37.0811 7.99512 36.9639 8.1123C36.8525 8.22363 36.7646 8.35547 36.7002 8.50781C36.6357 8.66016 36.6035 8.82422 36.6035 9V18H34.0811V9C34.0811 8.47852 34.1777 7.98926 34.3711 7.53223C34.5703 7.06934 34.8398 6.66797 35.1797 6.32812C35.5254 5.98242 35.9268 5.71289 36.3838 5.51953C36.8467 5.32031 37.3389 5.2207 37.8604 5.2207C38.3291 5.2207 38.7803 5.30566 39.2139 5.47559C39.6475 5.63965 40.0371 5.87988 40.3828 6.19629C40.7285 5.87988 41.1152 5.63965 41.543 5.47559C41.9766 5.30566 42.4277 5.2207 42.8965 5.2207C43.418 5.2207 43.9072 5.32031 44.3643 5.51953C44.8271 5.71289 45.2285 5.98242 45.5684 6.32812C45.9141 6.66797 46.1836 7.06934 46.377 7.53223C46.5762 7.98926 46.6758 8.47852 46.6758 9V18ZM51.5098 6.0293C51.5098 6.25195 51.4658 6.45996 51.3779 6.65332C51.2959 6.84668 51.1816 7.0166 51.0352 7.16309C50.8887 7.30371 50.7158 7.41797 50.5166 7.50586C50.3232 7.58789 50.1152 7.62891 49.8926 7.62891C49.6699 7.62891 49.459 7.58789 49.2598 7.50586C49.0664 7.41797 48.8965 7.30371 48.75 7.16309C48.6094 7.0166 48.4951 6.84668 48.4072 6.65332C48.3252 6.45996 48.2842 6.25195 48.2842 6.0293C48.2842 5.8125 48.3252 5.60742 48.4072 5.41406C48.4951 5.21484 48.6094 5.04492 48.75 4.9043C48.8965 4.75781 49.0664 4.64355 49.2598 4.56152C49.459 4.47363 49.6699 4.42969 49.8926 4.42969C50.1152 4.42969 50.3232 4.47363 50.5166 4.56152C50.7158 4.64355 50.8887 4.75781 51.0352 4.9043C51.1816 5.04492 51.2959 5.21484 51.3779 5.41406C51.4658 5.60742 51.5098 5.8125 51.5098 6.0293ZM51.0967 18H48.6797V8.58691H51.0967V18ZM62.0303 18H61.4502L60.5186 16.708C60.29 16.9131 60.0469 17.1064 59.7891 17.2881C59.5371 17.4639 59.2705 17.6191 58.9893 17.7539C58.708 17.8828 58.418 17.9854 58.1191 18.0615C57.8262 18.1377 57.5273 18.1758 57.2227 18.1758C56.5605 18.1758 55.9365 18.0527 55.3506 17.8066C54.7705 17.5547 54.2607 17.209 53.8213 16.7695C53.3877 16.3242 53.0449 15.7998 52.793 15.1963C52.541 14.5869 52.415 13.9248 52.415 13.21C52.415 12.501 52.541 11.8418 52.793 11.2324C53.0449 10.623 53.3877 10.0957 53.8213 9.65039C54.2607 9.20508 54.7705 8.85645 55.3506 8.60449C55.9365 8.35254 56.5605 8.22656 57.2227 8.22656C57.4336 8.22656 57.6504 8.24414 57.873 8.2793C58.1016 8.31445 58.3213 8.37305 58.5322 8.45508C58.749 8.53125 58.9512 8.63379 59.1387 8.7627C59.3262 8.8916 59.4844 9.0498 59.6133 9.2373V4.84277H62.0303V18ZM59.6133 13.21C59.6133 12.8818 59.5488 12.5654 59.4199 12.2607C59.2969 11.9502 59.127 11.6777 58.9102 11.4434C58.6934 11.2031 58.4385 11.0127 58.1455 10.8721C57.8584 10.7256 57.5508 10.6523 57.2227 10.6523C56.8945 10.6523 56.584 10.7109 56.291 10.8281C56.0039 10.9453 55.752 11.1152 55.5352 11.3379C55.3242 11.5547 55.1572 11.8213 55.0342 12.1377C54.9111 12.4541 54.8496 12.8115 54.8496 13.21C54.8496 13.5557 54.9111 13.8838 55.0342 14.1943C55.1572 14.5049 55.3242 14.7773 55.5352 15.0117C55.752 15.2461 56.0039 15.4307 56.291 15.5654C56.584 15.7002 56.8945 15.7676 57.2227 15.7676C57.5508 15.7676 57.8584 15.6973 58.1455 15.5566C58.4385 15.4102 58.6934 15.2197 58.9102 14.9854C59.127 14.7451 59.2969 14.4727 59.4199 14.168C59.5488 13.8574 59.6133 13.5381 59.6133 13.21ZM66.6973 6.0293C66.6973 6.25195 66.6533 6.45996 66.5654 6.65332C66.4834 6.84668 66.3691 7.0166 66.2227 7.16309C66.0762 7.30371 65.9033 7.41797 65.7041 7.50586C65.5107 7.58789 65.3027 7.62891 65.0801 7.62891C64.8574 7.62891 64.6465 7.58789 64.4473 7.50586C64.2539 7.41797 64.084 7.30371 63.9375 7.16309C63.7969 7.0166 63.6826 6.84668 63.5947 6.65332C63.5127 6.45996 63.4717 6.25195 63.4717 6.0293C63.4717 5.8125 63.5127 5.60742 63.5947 5.41406C63.6826 5.21484 63.7969 5.04492 63.9375 4.9043C64.084 4.75781 64.2539 4.64355 64.4473 4.56152C64.6465 4.47363 64.8574 4.42969 65.0801 4.42969C65.3027 4.42969 65.5107 4.47363 65.7041 4.56152C65.9033 4.64355 66.0762 4.75781 66.2227 4.9043C66.3691 5.04492 66.4834 5.21484 66.5654 5.41406C66.6533 5.60742 66.6973 5.8125 66.6973 6.0293ZM66.2842 18H63.8672V8.58691H66.2842V18ZM77.2354 18H76.6553L75.7236 16.708C75.4951 16.9131 75.252 17.1064 74.9941 17.2881C74.7422 17.4639 74.4756 17.6191 74.1943 17.7539C73.9131 17.8828 73.623 17.9854 73.3242 18.0615C73.0312 18.1377 72.7324 18.1758 72.4277 18.1758C71.7656 18.1758 71.1416 18.0645 70.5557 17.8418C69.9756 17.6191 69.4658 17.2969 69.0264 16.875C68.5928 16.4473 68.25 15.9258 67.998 15.3105C67.7461 14.6953 67.6201 13.9951 67.6201 13.21C67.6201 12.4775 67.7461 11.8066 67.998 11.1973C68.25 10.582 68.5928 10.0547 69.0264 9.61523C69.4658 9.17578 69.9756 8.83594 70.5557 8.5957C71.1416 8.34961 71.7656 8.22656 72.4277 8.22656C72.7324 8.22656 73.0342 8.26465 73.333 8.34082C73.6318 8.41699 73.9219 8.52246 74.2031 8.65723C74.4844 8.79199 74.751 8.9502 75.0029 9.13184C75.2607 9.31348 75.501 9.50977 75.7236 9.7207L76.6553 8.60449H77.2354V18ZM74.8184 13.21C74.8184 12.8818 74.7539 12.5654 74.625 12.2607C74.502 11.9502 74.332 11.6777 74.1152 11.4434C73.8984 11.2031 73.6436 11.0127 73.3506 10.8721C73.0635 10.7256 72.7559 10.6523 72.4277 10.6523C72.0996 10.6523 71.7891 10.708 71.4961 10.8193C71.209 10.9307 70.957 11.0947 70.7402 11.3115C70.5293 11.5283 70.3623 11.7979 70.2393 12.1201C70.1162 12.4365 70.0547 12.7998 70.0547 13.21C70.0547 13.6201 70.1162 13.9863 70.2393 14.3086C70.3623 14.625 70.5293 14.8916 70.7402 15.1084C70.957 15.3252 71.209 15.4893 71.4961 15.6006C71.7891 15.7119 72.0996 15.7676 72.4277 15.7676C72.7559 15.7676 73.0635 15.6973 73.3506 15.5566C73.6436 15.4102 73.8984 15.2197 74.1152 14.9854C74.332 14.7451 74.502 14.4727 74.625 14.168C74.7539 13.8574 74.8184 13.5381 74.8184 13.21Z" fill="#393939"/>
<path d="M89.4082 14.2207C89.4082 14.7422 89.3086 15.2314 89.1094 15.6885C88.9102 16.1455 88.6377 16.5469 88.292 16.8926C87.9521 17.2324 87.5537 17.502 87.0967 17.7012C86.6396 17.9004 86.1504 18 85.6289 18H79.3271V5.39648H85.6289C86.1504 5.39648 86.6396 5.49609 87.0967 5.69531C87.5537 5.89453 87.9521 6.16699 88.292 6.5127C88.6377 6.85254 88.9102 7.25098 89.1094 7.70801C89.3086 8.16504 89.4082 8.6543 89.4082 9.17578C89.4082 9.41016 89.376 9.65039 89.3115 9.89648C89.2471 10.1426 89.1562 10.3799 89.0391 10.6084C88.9219 10.8369 88.7812 11.0449 88.6172 11.2324C88.4531 11.4199 88.2715 11.5752 88.0723 11.6982C88.2773 11.8096 88.4619 11.9619 88.626 12.1553C88.79 12.3428 88.9307 12.5508 89.0479 12.7793C89.165 13.0078 89.2529 13.248 89.3115 13.5C89.376 13.7461 89.4082 13.9863 89.4082 14.2207ZM81.8496 15.4775H85.6289C85.8047 15.4775 85.9688 15.4453 86.1211 15.3809C86.2734 15.3164 86.4053 15.2285 86.5166 15.1172C86.6338 15 86.7246 14.8652 86.7891 14.7129C86.8535 14.5605 86.8857 14.3965 86.8857 14.2207C86.8857 14.0449 86.8535 13.8809 86.7891 13.7285C86.7246 13.5762 86.6338 13.4443 86.5166 13.333C86.4053 13.2158 86.2734 13.125 86.1211 13.0605C85.9688 12.9961 85.8047 12.9639 85.6289 12.9639H81.8496V15.4775ZM81.8496 10.4414H85.6289C85.8047 10.4414 85.9688 10.4092 86.1211 10.3447C86.2734 10.2803 86.4053 10.1924 86.5166 10.0811C86.6338 9.96387 86.7246 9.8291 86.7891 9.67676C86.8535 9.51855 86.8857 9.35156 86.8857 9.17578C86.8857 9 86.8535 8.83594 86.7891 8.68359C86.7246 8.53125 86.6338 8.39941 86.5166 8.28809C86.4053 8.1709 86.2734 8.08008 86.1211 8.01562C85.9688 7.95117 85.8047 7.91895 85.6289 7.91895H81.8496V10.4414ZM100.157 13.21C100.157 13.9131 100.031 14.5693 99.7793 15.1787C99.5273 15.7822 99.1846 16.3066 98.751 16.752C98.3174 17.1914 97.8076 17.54 97.2217 17.7979C96.6416 18.0498 96.0176 18.1758 95.3496 18.1758C94.6875 18.1758 94.0635 18.0498 93.4775 17.7979C92.8975 17.54 92.3877 17.1914 91.9482 16.752C91.5146 16.3066 91.1719 15.7822 90.9199 15.1787C90.668 14.5693 90.542 13.9131 90.542 13.21C90.542 12.4951 90.668 11.833 90.9199 11.2236C91.1719 10.6143 91.5146 10.0898 91.9482 9.65039C92.3877 9.20508 92.8975 8.85645 93.4775 8.60449C94.0635 8.35254 94.6875 8.22656 95.3496 8.22656C96.0176 8.22656 96.6416 8.34668 97.2217 8.58691C97.8076 8.82129 98.3174 9.1582 98.751 9.59766C99.1846 10.0312 99.5273 10.5557 99.7793 11.1709C100.031 11.7803 100.157 12.46 100.157 13.21ZM97.7402 13.21C97.7402 12.8232 97.6758 12.4746 97.5469 12.1641C97.4238 11.8477 97.2539 11.5781 97.0371 11.3555C96.8203 11.127 96.5654 10.9541 96.2725 10.8369C95.9854 10.7139 95.6777 10.6523 95.3496 10.6523C95.0215 10.6523 94.7109 10.7139 94.418 10.8369C94.1309 10.9541 93.8789 11.127 93.6621 11.3555C93.4512 11.5781 93.2842 11.8477 93.1611 12.1641C93.0381 12.4746 92.9766 12.8232 92.9766 13.21C92.9766 13.5732 93.0381 13.9102 93.1611 14.2207C93.2842 14.5312 93.4512 14.8008 93.6621 15.0293C93.8789 15.2578 94.1309 15.4395 94.418 15.5742C94.7109 15.7031 95.0215 15.7676 95.3496 15.7676C95.6777 15.7676 95.9854 15.7061 96.2725 15.583C96.5654 15.46 96.8203 15.2871 97.0371 15.0645C97.2539 14.8418 97.4238 14.5723 97.5469 14.2559C97.6758 13.9395 97.7402 13.5908 97.7402 13.21ZM110.599 18H110.019L109.087 16.708C108.858 16.9131 108.615 17.1064 108.357 17.2881C108.105 17.4639 107.839 17.6191 107.558 17.7539C107.276 17.8828 106.986 17.9854 106.688 18.0615C106.395 18.1377 106.096 18.1758 105.791 18.1758C105.129 18.1758 104.505 18.0645 103.919 17.8418C103.339 17.6191 102.829 17.2969 102.39 16.875C101.956 16.4473 101.613 15.9258 101.361 15.3105C101.109 14.6953 100.983 13.9951 100.983 13.21C100.983 12.4775 101.109 11.8066 101.361 11.1973C101.613 10.582 101.956 10.0547 102.39 9.61523C102.829 9.17578 103.339 8.83594 103.919 8.5957C104.505 8.34961 105.129 8.22656 105.791 8.22656C106.096 8.22656 106.397 8.26465 106.696 8.34082C106.995 8.41699 107.285 8.52246 107.566 8.65723C107.848 8.79199 108.114 8.9502 108.366 9.13184C108.624 9.31348 108.864 9.50977 109.087 9.7207L110.019 8.60449H110.599V18ZM108.182 13.21C108.182 12.8818 108.117 12.5654 107.988 12.2607C107.865 11.9502 107.695 11.6777 107.479 11.4434C107.262 11.2031 107.007 11.0127 106.714 10.8721C106.427 10.7256 106.119 10.6523 105.791 10.6523C105.463 10.6523 105.152 10.708 104.859 10.8193C104.572 10.9307 104.32 11.0947 104.104 11.3115C103.893 11.5283 103.726 11.7979 103.603 12.1201C103.479 12.4365 103.418 12.7998 103.418 13.21C103.418 13.6201 103.479 13.9863 103.603 14.3086C103.726 14.625 103.893 14.8916 104.104 15.1084C104.32 15.3252 104.572 15.4893 104.859 15.6006C105.152 15.7119 105.463 15.7676 105.791 15.7676C106.119 15.7676 106.427 15.6973 106.714 15.5566C107.007 15.4102 107.262 15.2197 107.479 14.9854C107.695 14.7451 107.865 14.4727 107.988 14.168C108.117 13.8574 108.182 13.5381 108.182 13.21ZM114.835 18H112.436V8.58691H113.016L113.807 9.70312C114.193 9.35156 114.633 9.08203 115.125 8.89453C115.617 8.70117 116.127 8.60449 116.654 8.60449H118.772V10.9951H116.654C116.402 10.9951 116.165 11.042 115.942 11.1357C115.72 11.2295 115.526 11.3584 115.362 11.5225C115.198 11.6865 115.069 11.8799 114.976 12.1025C114.882 12.3252 114.835 12.5625 114.835 12.8145V18ZM128.81 18H128.229L127.298 16.708C127.069 16.9131 126.826 17.1064 126.568 17.2881C126.316 17.4639 126.05 17.6191 125.769 17.7539C125.487 17.8828 125.197 17.9854 124.898 18.0615C124.605 18.1377 124.307 18.1758 124.002 18.1758C123.34 18.1758 122.716 18.0527 122.13 17.8066C121.55 17.5547 121.04 17.209 120.601 16.7695C120.167 16.3242 119.824 15.7998 119.572 15.1963C119.32 14.5869 119.194 13.9248 119.194 13.21C119.194 12.501 119.32 11.8418 119.572 11.2324C119.824 10.623 120.167 10.0957 120.601 9.65039C121.04 9.20508 121.55 8.85645 122.13 8.60449C122.716 8.35254 123.34 8.22656 124.002 8.22656C124.213 8.22656 124.43 8.24414 124.652 8.2793C124.881 8.31445 125.101 8.37305 125.312 8.45508C125.528 8.53125 125.73 8.63379 125.918 8.7627C126.105 8.8916 126.264 9.0498 126.393 9.2373V4.84277H128.81V18ZM126.393 13.21C126.393 12.8818 126.328 12.5654 126.199 12.2607C126.076 11.9502 125.906 11.6777 125.689 11.4434C125.473 11.2031 125.218 11.0127 124.925 10.8721C124.638 10.7256 124.33 10.6523 124.002 10.6523C123.674 10.6523 123.363 10.7109 123.07 10.8281C122.783 10.9453 122.531 11.1152 122.314 11.3379C122.104 11.5547 121.937 11.8213 121.813 12.1377C121.69 12.4541 121.629 12.8115 121.629 13.21C121.629 13.5557 121.69 13.8838 121.813 14.1943C121.937 14.5049 122.104 14.7773 122.314 15.0117C122.531 15.2461 122.783 15.4307 123.07 15.5654C123.363 15.7002 123.674 15.7676 124.002 15.7676C124.33 15.7676 124.638 15.6973 124.925 15.5566C125.218 15.4102 125.473 15.2197 125.689 14.9854C125.906 14.7451 126.076 14.4727 126.199 14.168C126.328 13.8574 126.393 13.5381 126.393 13.21Z" fill="#2076BB"/>
<rect y="2.17242" width="3.82001" height="16.5336" fill="#E18C0C"/>
<path d="M20.1285 2.17242H5.43616V5.09012H16.7493V9.7098L25.4178 7.03525V13.9648L16.7493 11.2902V15.9099H5.43616V18.8276H20.1285V15.1805L29.2378 18.8276V2.17242L20.1285 5.5764V2.17242Z" fill="#2076BB"/>
</svg>
